<mxfile host="app.diagrams.net" modified="2023-12-02T19:27:03.162Z" agent="Mozilla/5.0 (Windows NT 10.0; Win64; x64) AppleWebKit/537.36 (KHTML, like Gecko) Chrome/119.0.0.0 Safari/537.36" etag="d-ZZ00klpbEONtzbDX0m" version="22.1.5" type="github">
  <diagram name="Page-1" id="gEwdqpSqVuiyVMScJCqB">
    <mxGraphModel dx="1434" dy="758" grid="1" gridSize="10" guides="1" tooltips="1" connect="1" arrows="1" fold="1" page="1" pageScale="1" pageWidth="827" pageHeight="1169" math="0" shadow="0">
      <root>
        <mxCell id="0" />
        <mxCell id="1" parent="0" />
        <mxCell id="tvQKc_M3v3oXsCmEUugs-1" value="" style="group" vertex="1" connectable="0" parent="1">
          <mxGeometry x="70.5" y="860" width="1309" height="723" as="geometry" />
        </mxCell>
        <mxCell id="tvQKc_M3v3oXsCmEUugs-2" value="" style="shape=image;verticalLabelPosition=bottom;labelBackgroundColor=default;verticalAlign=top;aspect=fixed;imageAspect=0;image=data:image/png,iVBORw0KGgoAAAANSUhEUgAABR0AAALTCAYAAACbuaWgAAAgAElEQVR4AezdsY4lS1Iw4NFqnYFnGI2QeIJ9AjQ4IK3BGvc51mJNbF4BaR8AgzdASDgIZ12QxsJk18BhJaQFrRrV6M9fzZyeUyfmVFZFZHwttWruqeysyC+iK+vE7Zl+9+KDAAECBAgQIECAAAECBAgQIECAAAECBwq8O3AuUxEgQIAAAQIECBAgQIAAAQIECBAgQOBF01ERECBAgAABAgQIECBAgAABAgQIECBwqICm46GcJiNAgAABAgQIECBAgAABAgQIECBAQNNRDRAgQIAAAQIECBAgQIAAAQIECBAgcKiApuOhnCYjQIAAAQIECBAgQIAAAQIECBAgQEDTUQ0QIECAAAECBAgQIECAAAECBAgQIHCogKbjoZwmI0CAAAECBAgQIECAAAECBAgQIEBA01ENECBAgAABAgQIECBAgAABAgQIECBwqICm46GcJiNAgAABAgQIECBAgAABAgQIECBAQNNRDRAgQIAAAQIECBAgQIAAAQIECBAgcKiApuOhnCYjQIAAAQIECBAgQIAAAQIECBAgQEDTUQ0QIECAAAECBAgQIECAAAECBAgQIHCogKbjoZwmI0CAAAECBAgQIECAAAECBAgQIEBA01ENECBAgAABAgQIECBAgAABAgQIECBwqICm46GcJiNAgAABAgQIECBAgAABAgQIECBAQNNRDRAgQIAAAQIECBAgQIAAAQIECBAgcKiApuOhnCYjQIAAAQIECBAgQIAAAQIECBAgQEDTUQ0QIECAAAECBAgQIECAAAECBAgQIHCoQMqm429+85uXjx8/vmxHHwQIECBAgAABAgQIECBAgAABAgQI1BLQdKyVL9ESIECAAAECBAgQIECAAAECBAgQSC+g6Zg+RQIkQIAAAQIECBAgQIAAAQIECBAgUEtA07FWvkRLgAABAgQIECBAgAABAgQIECBAIL2ApmP6FAmQAAECBAgQIECAAAECBAgQIECAQC0BTcda+RItAQIECBAgQIAAAQIECBAgQIAAgfQCmo7pUyRAAgQIECBAgAABAgQIECBAgAABArUENB1r5Uu0BAgQIECAAAECBAgQIECAAAECBNILaDqmT5EACRAgQIAAAQIECBAgQIAAAQIECNQS0HSslS/REiBAgAABAgQIECBAgAABAgQIEEgvoOmYPkUCJECAAAECBAgQIECAAAECBAgQIFBLQNOxVr5ES4AAAQIECBAgQIAAAQIECBAgQCC9gKZj+hQJkAABAgQIECBAgAABAgQIECBAgEAtAU3HWvkSLQECBAgQIECAAAECBAgQIECAAIH0ApqO6VMkQAIECBAgQIAAAQIECBAgQIAAAQK1BNI1HX/zm9+8fP78+eXDhw9fjtt/b58+CBAgQIAAAQIECBAgQIAAAQIECBCoIZCq6fjrX//65d27dzef79+/f/n3f//3GqKiJECAAAECBAgQIECAAAECBAgQINBcIFXT8be//e3Ln/7pn940Hf/sz/7s5b/+67+ap8ryCRAgQIAAAQIECBAgQIAAAQIECNQQSNV0/N3vfvfyk5/85Kbp+Bd/8Rcvv//972uIipIAAQIECBAgQIAAAQIECBAgQIBAc4FUTcetsfizn/3spun413/9183TZPkECBAgQIAAAQIECBAgQIAAAQIE6gikajpubL/4xS9umo5///d/X0dUpAQIECBAgAABAgQIECBAgAABAgSaC6RrOv7yl7+8aTr+27/9W/M0WT4BAgQIECBAgAABAgQIECBAgACBOgLpmo7/8A//8H+ajn/0R3/08p//+Z91REVKgAABAgQIECBAgAABAgQIECBAoLlAuqbjv/7rv/6fpuOf/MmfvPzP//xP8zRZPgECBAgQIECAAAECBAgQIECAAIE6Aumajr/+9a//T9PxL//yL+toipQAAQIECBAgQIAAAQIECBAgQIAAgZd0Tcff/va3L9tfqX737t2Xz7/7u7+TJgIECBAgQIAAAQIECBAgQIAAAQIECgmkazr+93//98tPfvKT/990/Jd/+ZdCnEIlQIAAAQIECBAgQIAAAQIECBAgQCBd0/H3v//9y89+9rMvTcePHz++/Md//IcsESBAgAABAgQIECBAgAABAgQIECBQSCBd03Gz+8UvfvGl6bj9xOPvfve7QpxCJUCAAAECBAgQIECAAAECBAgQIEAgZdPxl7/85Zem41/91V/JEAECBAgQIECAAAECBAgQIECAAAECxQRSNh3/+Z//+UvT8W//9m+LcQqXAAECBAgQIECAAAECBAgQIECAAIFLmo6/+c1vXu59/upXv/rSdPzHf/zHu+PuzbH6uUdKd3UD67v/fcSHjxpQA2pADaiB9WrgkWfAbYzcr5d7OZXTs2rg0fuMcQQIENgTuKTpuP2CmHufP/zww8uPfvSjl+14b1znc7uJfffu5f379y8fPnxguFNvnevI2u/fi/jwUQNqQA2ogSw18OnTpy/PdlvTYe9jG7M9B25fkyV+cfheUgP5ayByn9m7DzlPgACBTeCSpuPe/6H5/Pnzl2bZdtwb2/X8XvluLtumwdD/Ee36PWLdal8NqAE1oAZWqoHxfLytae9jG7P9j2fPgb4HVvoesJb59Ry5z+zdh5wnQIDAJnBJ03GPfttQtv8Tth19fJ8Aw+9z81UECBAgQIAAgYwCkWe7yNiMaxUTAQLXCLh3XOPuqgRWFtB0XDS7NoxFE2tZBAgQIECAQEuByLNdZGxLTIsmQOBNAfeON1m8SIDAEwKajk/gZf5SG0bm7IiNAAECBAgQIBATiDzbRcbGojCaAIGVBdw7Vs6utRG4RkDT8Rr36Ve1YUwndgECBAgQIECAwGkCkWe7yNjTFuBCBAikF3DvSJ8iARIoJ6DpWC5ljwVsw3jMySgCBAgQIECAQAWByLNdZGyFtYuRAIFzBNw7znF2FQKdBDQdF822DWPRxFoWAQIECBAg0FIg8mwXGdsS06IJEHhTwL3jTRYvEiDwhICm4xN4mb/UhpE5O2IjQIAAAQIECMQEIs92kbGxKIwmQGBlAfeOlbNrbQSuEdB0vMZ9+lVtGNOJXYAAAQIECBAgcJpA5NkuMva0BbgQAQLpBdw70qdIgATKCWg6lkvZYwHbMB5zMooAAQIECBAgUEEg8mwXGVth7WIkQOAcAfeOc5xdhUAnAU3HRbNtw1g0sZZFgAABAgQItBSIPNtFxrbEtGgCBN4UcO94k8WLBAg8IaDp+ARe5i+1YWTOjtgIECBAgAABAjGByLNdZGwsCqMJEFhZwL1j5exaG4FrBDQdr3GfflUbxnRiFyBAgAABAgQInCYQebaLjD1tAS5EgEB6AfeO9CkSIIFyApqO5VL2WMA2jMecjCJAgAABAgQIVBCIPNtFxlZYuxgJEDhHwL3jHGdXIdBJIGXT8fPnzy/v379/2Y4+vk/AhvF9br6KAAECBAgQIJBRIPJsFxmbca1iIkDgGgH3jmvcXZXAygIpm45uds+XHMPnDc1AgAABAgQIEMgiEHm2i4zNsj5xECBwvYB7x/U5EAGB1QQ0HVfL6P9bjw1j0cRaFgECBAgQINBSIPJsFxnbEtOiCRB4U8C9400WLxIg8ISApuMTeJm/1IaROTtiI0CAAAECBAjEBCLPdpGxsSiMJkBgZQH3jpWza20ErhHQdLzGffpVbRjTiV2AAAECBAgQIHCaQOTZLjL2tAW4EAEC6QXcO9KnSIAEygloOpZL2WMB2zAeczKKAAECBAgQIFBBIPJsFxlbYe1iJEDgHAH3jnOcXYVAJwFNx0WzbcNYNLGWRYAAAQIECLQUiDzbRca2xLRoAgTeFHDveJPFiwQIPCGg6fgEXuYvtWFkzo7YCBAgQIAAAQIxgcizXWRsLAqjCRBYWcC9Y+XsWhuBawQ0Ha9xn35VG8Z0YhcgQIAAAQIECJwmEHm2i4w9bQEuRIBAegH3jvQpEiCBcgKajuVS9ljANozHnIwiQIAAAQIECFQQiDzbRcZWWLsYCRA4R8C94xxnVyHQSUDTcdFs2zAWTaxlESBAgAABAi0FIs92kbEtMS2aAIE3Bdw73mTxIgECTwhoOj6Bl/lLbRiZsyM2AgQIECBAgEBMIPJsFxkbi8JoAgRWFnDvWDm71kbgGgFNx2vcp1/VhjGd2AUIECBAgAABAqcJRJ7tImNPW4ALESCQXsC9I32KBEignICmY7mUPRawDeMxJ6MIECBAgAABAhUEIs92kbEV1i5GAgTOEXDvOMfZVQh0EtB0XDTbNoxFE2tZBAgQIECAQEuByLNdZGxLTIsmQOBNAfeON1m8SIDAEwKajk/gZf5SG0bm7IiNAAECBAgQIBATiDzbRcbGojCaAIGVBdw7Vs6utRG4RkDT8Rr36Ve1YUwndgECBAgQIECAwGkCkWe7yNjTFuBCBAikF3DvSJ8iARIoJ6DpWC5ljwVsw3jMySgCBAgQIECAQAWByLNdZGyFtYuRAIFzBNw7znF2FQKdBDQdF822DWPRxFoWAQIECBAg0FIg8mwXGdsS06IJEHhTwL3jTRYvEiDwhICm4xN4mb/UhpE5O2IjQIAAAQIECMQEIs92kbGxKIwmQGBlAfeOlbNrbQSuEdB0vMZ9+lVtGNOJXYAAAQIECBAgcJpA5NkuMva0BbgQAQLpBdw70qdIgATKCWg6lkvZYwHbMB5zMooAAQIECBAgUEEg8mwXGVth7WIkQOAcAfeOc5xdhUAnAU3HRbNtw1g0sZZFgAABAgQItBSIPNtFxrbEtGgCBN4UcO94k8WLBAg8IaDp+ARe5i+1YWTOjtgIECBAgAABAjGByLNdZGwsCqMJEFhZwL1j5exaG4FrBDQdr3GfflUbxnRiFyBAgAABAgQInCYQebaLjD1tAS5EgEB6AfeO9CkSIIFyApqO5VL2WMA2jMecjCJAgAABAgQIVBCIPNtFxlZYuxgJEDhHwL3jHGdXIdBJQNNx0WzbMBZNrGURIECAAAECLQUiz3aRsS0xLZoAgTcF3DveZPEiAQJPCGg6PoGX+UttGJmzIzYCBAgQIECAQEwg8mwXGRuLwmgCBFYWcO9YObvWRuAaAU3Ha9ynX9WGMZ3YBQgQIECAAAECpwlEnu0iY09bgAsRIJBewL0jfYoESKCcgKZjuZQ9FrAN4zEnowgQIECAAAECFQQiz3aRsRXWLkYCBM4RcO84x9lVCHQS0HRcNNs2jEUTa1kECBAgQIBAS4HIs11kbEtMiyZA4E0B9443WbxIgMATApqOT+Bl/lIbRubsiI0AAQIECBAgEBOIPNtFxsaiMJoAgZUF3DtWzq61EbhGQNPxGvfpV7VhTCd2AQIECBAgQIDAaQKRZ7vI2NMW4EIECKQXcO9InyIBEignoOlYLmWPBWzDeMzJKAIECBAgQIBABYHIs11kbIW1i5EAgXME3DvOcXYVAp0ENB0XzbYNY9HEWhYBAgQIECDQUiDybBcZ2xLTogkQeFPAveNNFi8SIPCEgKbjE3iZv9SGkTk7YiNAgAABAgQIxAQiz3aRsbEojCZAYGUB946Vs2ttBK4R0HS8xn36VW0Y04ldgAABAgQIECBwmkDk2S4y9rQFuBABAukF3DvSp0iABMoJaDqWS9ljAdswHnMyigABAgQIECBQQSDybBcZW2HtYiRA4BwB945znF2FQCcBTcdFs23DWDSxlkWAAAECBAi0FIg820XGtsS0aAIE3hRw73iTxYsECDwhoOn4BF7mL7VhZM6O2AgQIECAAAECMYHIs11kbCwKowkQWFnAvWPl7FobgWsENB2vcZ9+VRvGdGIXIECAAAECBAicJhB5touMPW0BLkSAQHoB9470KRIggXICmo7lUvZYwDaMx5yMIkCAAAECBAhUEIg820XGVli7GAkQOEfAveMcZ1ch0ElA03HRbNswFk2sZREgQIAAAQItBSLPdpGxLTEtmgCBNwXcO95k8SIBAk8IaDo+gZf5S20YmbMjNgIECBAgQIBATCDybBcZG4vCaAIEVhZw71g5u9ZG4BoBTcdr3Kdf1YYxndgFCBAgQIAAAQKnCUSe7SJjT1uACxEgkF7AvSN9igRIoJyApmO5lD0WsA3jMSejCBAgQIAAAQIVBCLPdpGxFdYuRgIEzhFw7zjH2VUIdBLQdFw02zaMRRNrWQQIECBAgEBLgcizXWRsS0yLJkDgTQH3jjdZvEiAwBMCmo5P4GX+UhtG5uyIjQABAgQIECAQE4g820XGxqIwmgCBlQXcO1bOrrURuEZA0/Ea9+lXtWFMJ3YBAgQIECBAgMBpApFnu8jY0xbgQgQIpBdw70ifIgESKCeg6VguZY8FbMN4zMkoAgQIECBAgEAFgcizXWRshbWLkQCBcwTcO85xdhUCnQQ0HRfNtg1j0cRaFgECBAgQINBSIPJsFxnbEtOiCRB4U8C9400WLxIg8ISApuMTeJm/1IaROTtiI0CAAAECBAjEBCLPdpGxsSiMJkBgZQH3jpWza20ErhHQdLzGffpVbRjTiV2AAAECBAgQIHCaQOTZLjL2tAW4EAEC6QXcO9KnSIAEygloOpZL2WMB2zAeczKKAAECBAgQIFBBIPJsFxlbYe1iJEDgHAH3jnOcXYVAJwFNx0WzbcNYNLGWRYAAAQIECLQUiDzbRca2xLRoAgTeFHDveJPFiwQIPCGg6fgEXuYvtWFkzo7YCBAgQIAAAQIxgcizXWRsLAqjCRBYWcC9Y+XsWhuBawQ0Ha9xn35VG8Z0YhcgQIAAAQIECJwmEHm2i4w9bQEuRIBAegH3jvQpEiCBcgKajuVS9ljANozHnIwiQIAAAQIECFQQiDzbRcZWWLsYCRA4R8C94xxnVyHQSUDTcdFs2zAWTaxlESBAgAABAi0FIs92kbEtMS2aAIE3Bdw73mTxIgECTwhoOj6Bl/lLbRiZsyM2AgQIECBAgEBMIPJsFxkbi8JoAgRWFnDvWDm71kbgGgFNx2vcp1/VhjGd2AUIECBAgAABAqcJRJ7tImNPW4ALESCQXsC9I32KBEignICmY7mUPRawDeMxJ6MIECBAgAABAhUEIs92kbEV1i5GAgTOEXDvOMfZVQh0EtB0XDTbNoxFE2tZBAgQIECAQEuByLNdZGxLTIsmQOBNAfeON1m8SIDAEwKajk/gZf5SG0bm7IiNAAECBAgQIBATiDzbRcbGojCaAIGVBdw7Vs6utRG4RkDT8Rr36Ve1YUwndgECBAgQIECAwGkCkWe7yNjTFuBCBAikF3DvSJ8iARIoJ6DpWC5ljwVsw3jMySgCBAgQIECAQAWByLNdZGyFtYuRAIFzBNw7znF2FQKdBDQdF822DWPRxFoWAQIECBAg0FIg8mwXGdsS06IJEHhTwL3jTRYvEiDwhICm4xN4mb/UhpE5O2IjQIAAAQIECMQEIs92kbGxKIwmQGBlAfeOlbNrbQSuEdB0vMZ9+lVtGNOJXYAAAQIECBAgcJpA5NkuMva0BbgQAQLpBdw70qdIgATKCWg6lkvZYwHbMB5zMooAAQIECBAgUEEg8mwXGVth7WIkQOAcAfeOc5xdhUAnAU3HRbNtw1g0sZZFgAABAgQItBSIPNtFxrbEtGgCBN4UcO94k8WLBAg8IaDp+ARe5i+1YWTOjtgIECBAgAABAjGByLNdZGwsCqMJEFhZwL1j5exaG4FrBDQdr3GfflUbxnRiFyBAgAABAgQInCYQebaLjD1tAS5EgEB6AfeO9CkSIIFyApqO5VL2WMA2jMecjCJAgAABAgQIVBCIPNtFxlZYuxgJEDhHwL3jHGdXIdBJQNNx0WxvG8ZPf/rTl1/96lcvnz9/9slADagBNaAGWtbAtg9ue6JPBtVrYHue+/Dhw5da3nt83db68ePHh8buzeU8AQJ9BNw7+uTaSgmcJaDpeJb0ydfZHkx/9KMfvfzhH/7hy/v3730yUANqQA2ogXY18Ad/8Adf9sKtUbM1YHwyqFwD2/9M/vGPf/zlfx7sPVZqHOwJOU+AwFsC7h1vqXiNAIFnBDQdn9FL/LXbhuEnHf2Ep59yVQNqQA10roHtpxx/+OGHL02abV/0yaByDWzfy58+fXropxe3dfpJx8QP6kIjkFTAvSNpYoRFoLCApmPh5N0L3YZxT8c5AgQIEOggYC/skOU+a4zUc2RsH0ErJUBgT8C9Y0/IeQIEogKajlGxIuNtGEUSJUwCBAgQmCZgL5xGa+ILBCL1HBl7wVJckgCBpALuHUkTIywChQU0HQsn717oNox7Os4RIECAQAcBe2GHLPdZY6SeI2P7CFopAQJ7Au4de0LOEyAQFdB0jIoVGW/DKJIoYRIgQIDANAF74TRaE18gEKnnyNgLluKSBAgkFXDvSJoYYREoLKDpWDh590K3YdzTcY4AAQIEOgjYCztkuc8aI/UcGdtH0EoJENgTcO/YE3KeAIGogKZjVKzIeBtGkUQJkwABAgSmCdgLp9Ga+AKBSD1Hxl6wFJckQCCpgHtH0sQIi0BhAU3Hwsm7F7oN456OcwQIECDQQcBe2CHLfdYYqefI2D6CVkqAwJ6Ae8eekPMECEQFNB2jYkXG2zCKJEqYBAgQIDBNwF44jdbEFwhE6jky9oKluCQBAkkF3DuSJkZYBAoLaDoWTt690G0Y93ScI0CAAIEOAvbCDlnus8ZIPUfG9hG0UgIE9gTcO/aEnCdAICqg6RgVKzLehlEkUcIkQIAAgWkC9sJptCa+QCBSz5GxFyzFJQkQSCrg3pE0McIiUFhA07Fw8u6FbsO4p+McAQIECHQQsBd2yHKfNUbqOTK2j6CVEiCwJ+DesSfkPAECUQFNx6hYkfE2jCKJEiYBAgQITBOwF06jNfEFApF6joy9YCkuSYBAUgH3jqSJERaBwgKajoWTdy90G8Y9HecIECBAoIOAvbBDlvusMVLPkbF9BK2UAIE9AfeOPSHnCRCICmg6RsWKjLdhFEmUMAkQIEBgmoC9cBqtiS8QiNRzZOwFS3FJAgSSCrh3JE2MsAgUFtB0LJy8e6HbMO7pOEeAAAECHQTshR2y3GeNkXqOjO0jaKUECOwJuHfsCTlPgEBUQNMxKlZkvA2jSKKESYAAAQLTBOyF02hNfIFApJ4jYy9YiksSIJBUwL0jaWKERaCwgKZj4eTdC92GcU/HOQIECBDoIGAv7JDlPmuM1HNkbB9BKyVAYE/AvWNPyHkCBKICmo5RsSLjbRhFEiVMAgQIEJgmYC+cRmviCwQi9RwZe8FSXJIAgaQC7h1JEyMsAoUFNB0LJ+9e6DaMezrOESBAgEAHAXthhyz3WWOkniNj+whaKQECewLuHXtCzhMgEBXQdIyKFRlvwyiSKGESIECAwDQBe+E0WhNfIBCp58jYC5bikgQIJBVw70iaGGERKCyg6Vg4efdCt2Hc03GOAAECBDoI2As7ZLnPGiP1HBnbR9BKCRDYE3Dv2BNyngCBqICmY1SsyHgbRpFECZMAAQIEpgnYC6fRmvgCgUg9R8ZesBSXJEAgqYB7R9LECItAYQFNx8LJuxe6DeOejnMECBAg0EHAXtghy33WGKnnyNg+glZKgMCegHvHnpDzBAhEBTQdo2JFxtswiiRKmAQIECAwTcBeOI3WxBcIROo5MvaCpbgkAQJJBdw7kiZGWAQKC2g6Fk7evdBtGPd0nCNAgACBDgL2wg5Z7rPGSD1HxvYRtFICBPYE3Dv2hJwnQCAqoOkYFSsy3oZRJFHCJECAAIFpAvbCabQmvkAgUs+RsRcsxSUJEEgq4N6RNDHCIlBYQNOxcPLuhW7DuKfjHAECBAh0ELAXdshynzVG6jkyto+glRIgsCfg3rEn5DwBAlEBTceoWJHxNowiiRImAQIECEwTsBdOozXxBQKReo6MvWApLkmAQFIB946kiREWgcICmo6Fk3cvdBvGPR3nCBAgQKCDgL2wQ5b7rDFSz5GxfQStlACBPQH3jj0h5wkQiApoOkbFioy3YRRJlDAJECBAYJqAvXAarYkvEIjUc2TsBUtxSQIEkgq4dyRNjLAIFBbQdCycvHuh2zDu6ThHgAABAh0E7IUdstxnjZF6joztI2ilBAjsCbh37Ak5T4BAVEDTMSpWZLwNo0iihEmAAAEC0wTshdNoTXyBQKSeI2MvWIpLEiCQVMC9I2lihEWgsICmY+Hk3QvdhnFPxzkCBAgQ6CBgL+yQ5T5rjNRzZGwfQSslQGBPwL1jT8h5AgSiApqOUbEi420YRRIlTAIECBCYJmAvnEZr4gsEIvUcGXvBUlySAIGkAu4dSRMjLAKFBTQdCyfvXug2jHs6zhEgQIBABwF7YYcs91ljpJ4jY/sIWikBAnsC7h17Qs4TIBAV0HSMihUZb8MokihhEiBAgMA0AXvhNFoTXyAQqefI2AuW4pIECCQVcO9ImhhhESgsoOlYOHn3Qrdh3NNxjgABAgQ6CNgLO2S5zxoj9RwZ20fQSgkQ2BNw79gTcp4AgaiApmNUrMh4G0aRRAmTAAECBKYJ2Aun0Zr4AoFIPUfGXrAUlyRAIKmAe0fSxAiLQGEBTcfCybsXug3jno5zBAgQINBBwF7YIct91hip58jYPoJWSoDAnoB7x56Q8wQIRAU0HaNiRcbbMIokSpgECBAgME3AXjiN1sQXCETqOTL2gqW4JAECSQXcO5ImRlgECgtoOhZO3r3QbRj3dJwjQIAAgQ4C9sIOWe6zxkg9R8b2EbRSAgT2BNw79oScJ0AgKqDpGBUrMt6GUSRRwiRAgACBaQL2wmm0Jr5AIFLPkbEXLMUlCRBIKuDekTQxwiJQWEDTsXDy7oVuw7in4xwBAgQIdBCwF3bIcp81Ruo5MraPoJUSILAn4N6xJ+Q8AQJRAU3HqFiR8TaMIokSJgECBAhME7AXTqM18QUCkXqOjL1gKS5JgEBSAfeOpIkRFoHCApqOhZN3L3Qbxj0d5wgQIECgg3bJWjQAACAASURBVIC9sEOW+6wxUs+RsX0ErZQAgT0B9449IecJEIgKaDpGxYqMt2EUSZQwCRAgQGCagL1wGq2JLxCI1HNk7AVLcUkCBJIKuHckTYywCBQW0HQsnLx7odsw7uk4R4AAAQIdBOyFHbLcZ42Reo6M7SNopQQI7Am4d+wJOU+AQFRA0zEqVmS8DaNIooRJgAABAtME7IXTaE18gUCkniNjL1iKSxIgkFTAvSNpYoRFoLCApmPh5N0L3YZxT8c5AgQIEOggYC/skOU+a4zUc2RsH0ErJUBgT8C9Y0/IeQIEogKajlGxIuNtGEUSJUwCBAgQmCZgL5xGa+ILBCL1HBl7wVJckgCBpALuHUkTIywChQU0HQsn717oNox7Os4RIECAQAcBe2GHLPdZY6SeI2P7CFopAQJ7Au4de0LOEyAQFdB0jIoVGW/DKJIoYRIgQIDANAF74TRaE18gEKnnyNgLluKSBAgkFXDvSJoYYREoLKDpWDh590K3YdzTcY4AAQIEOgjYCztkuc8aI/UcGdtH0EoJENgTcO/YE3KeAIGogKZjVKzIeBtGkUQJkwABAgSmCdgLp9Ga+AKBSD1Hxl6wFJckQCCpgHtH0sQIi0BhAU3Hwsm7F7oN456OcwQIECDQQcBe2CHLfdYYqefI2D6CVkqAwJ6Ae8eekPMECEQFNB2jYkXG2zCKJEqYBAgQIDBNwF44jdbEFwhE6jky9oKluCQBAkkF3DuSJkZYBAoLaDoWTt690G0Y93ScI0CAAIEOAvbCDlnus8ZIPUfG9hG0UgIE9gTcO/aEnCdAICqg6RgVKzLehlEkUcIkQIAAgWkC9sJptCa+QCBSz5GxFyzFJQkQSCrg3pE0McIiUFhA07Fw8u6FbsO4p+McAQIECHQQsBd2yHKfNUbqOTK2j6CVEiCwJ+DesSfkPAECUQFNx6hYkfE2jCKJEiYBAgQITBOwF06jNfEFApF6joy9YCkuSYBAUgH3jqSJERaBwgKajoWTdy90G8Y9HecIECBAoIOAvbBDlvusMVLPkbF9BK2UAIE9AfeOPSHnCRCICmg6RsWKjLdhFEmUMAkQIEBgmoC9cBqtiS8QiNRzZOwFS3FJAgSSCrh3JE2MsAgUFtB0LJy8e6HbMO7pOEeAAAECHQTshR2y3GeNkXqOjO0jaKUECOwJuHfsCTlPgEBUQNMxKlZkvA2jSKKESYAAAQLTBOyF02hNfIFApJ4jYy9YiksSIJBUwL0jaWKERaCwgKZj4eTdC92GcU/HOQIECBDoIGAv7JDlPmuM1HNkbB9BKyVAYE/AvWNPyHkCBKICmo5RsSLjbRhFEiVMAgQIEJgmYC+cRmviCwQi9RwZe8FSXJIAgaQC7h1JEyMsAoUFNB0LJ+9e6DaMezrOESBAgEAHAXthhyz3WWOkniNj+whaKQECewLuHXtCzhMgEBXQdIyKFRlvwyiSKGESIECAwDQBe+E0WhNfIBCp58jYC5bikgQIJBVw70iaGGERKCyg6Vg4efdCt2Hc03GOAAECBDoI2As7ZLnPGiP1HBnbR9BKCRDYE3Dv2BNyngCBqICmY1SsyHgbRpFECZMAAQIEpgnYC6fRmvgCgUg9R8ZesBSXJEAgqYB7R9LECItAYQFNx8LJuxe6DeOejnMECBAg0EHAXtghy33WGKnnyNg+glZKgMCegHvHnpDzBAhEBTQdo2JFxtswiiRKmAQIECAwTcBeOI3WxBcIROo5MvaCpbgkAQJJBdw7kiZGWAQKC2g6Fk7evdBtGPd0nCNAgACBDgL2wg5Z7rPGSD1HxvYRtFICBPYE3Dv2hJwnQCAqoOkYFSsy3oZRJFHCJECAAIFpAvbCabQmvkAgUs+RsRcsxSUJEEgq4N6RNDHCIlBYQNOxcPLuhW7DuKfjHAECBAh0ELAXdshynzVG6jkyto+glRIgsCfg3rEn5DwBAlEBTceoWJHxNowiiRImAQIECEwTsBdOozXxBQKReo6MvWApLkmAQFIB946kiREWgcICmo6Fk3cvdBvGPR3nCBAgQKCDgL2wQ5b7rDFSz5GxfQStlACBPQH3jj0h5wkQiApoOkbFioy3YRRJlDAJECBAYJqAvXAarYkvEIjUc2TsBUtxSQIEkgq4dyRNjLAIFBbQdCycvHuh2zDu6ThHgAABAh0E7IUdstxnjZF6joztI2ilBAjsCbh37Ak5T4BAVEDTMSpWZLwNo0iihEmAAAEC0wTshdNoTXyBQKSeI2MvWIpLEiCQVMC9I2lihEWgsICmY+Hk3QvdhnFPxzkCBAgQ6CBgL+yQ5T5rjNRzZGwfQSslQGBPwL1jT8h5AgSiApqOUbEi420YRRIlTAIECBCYJmAvnEZr4gsEIvUcGXvBUlySAIGkAu4dSRMjLAKFBTQdCyfvXug2jHs6zhEgQIBABwF7YYcs91ljpJ4jY/sIWikBAnsC7h17Qs4TIBAV0HSMihUZb8MokihhEiBAgMA0AXvhNFoTXyAQqefI2AuW4pIECCQVcO9ImhhhESgsoOlYOHn3Qrdh3NNxjgABAgQ6CNgLO2S5zxoj9RwZ20fQSgkQ2BNw79gTcp4AgaiApmNUrMh4G0aRRAmTAAECBKYJ2Aun0Zr4AoFIPUfGXrAUlyRAIKmAe0fSxAiLQGEBTcfCybsXug3jno5zBAgQINBBwF7YIct91hip58jYPoJWSoDAnoB7x56Q8wQIRAU0HaNiRcZvG8aHDx9ePn/+/LL92ScDNaAG1IAa6FYD2x7405/+1F7oOWCJ56Ctnj99+vRlLXuPo9v3uudA9/xu93zrfb7mI/eZvfuQ8wQIENgENB0XrYNt033//v2Xh9OPHz+++GSgBtSAGlAD3Wpga7r8+Mc/thd6DljiOWir5+3ZbnvG2/vwHOh+3+1+b73H1HzkPrN3H3KeAAECm4Cm48J14P/2Pf9/+xgyVANqQA3UrgE/8V87f77/bvP36KMru1s7JkzUwGM18Oh9xjgCBAjsCWg67gk5T4AAAQIECBAgQIAAAQIECBAgQIBASEDTMcRlMAECBAgQIECAAAECBAgQIECAAAECewKajntCzhMgQIAAAQIECBAgQIAAAQIECBAgEBLQdAxxGUyAAAECBAgQIECAAAECBAgQIECAwJ6ApuOekPMECBAgQIAAAQIECBAgQIAAAQIECIQENB1DXAYTIECAAAECFQS231D68ePHl+3og8AKAmp6hSxaAwECBAgQ6CWg6dgr31ZLgAABAgRaCGjQtEhzq0Wq6VbptlgCBAgQILCEgKbjEmm0CAIECBAgQOC1gAbNaw1/XkFATa+QRWsgQIAAAQK9BDQde+XbagkQIECAQAsBDZoWaW61SDXdKt0WS4AAAQIElhDQdFwijRZBgAABAgQIvBbQoHmt4c8rCKjpFbJoDQQIECBAoJeApmOvfFstAQIECBBoIaBB0yLNrRapplul22IJECBAgMASApqOS6TRIggQIECAAIHXAho0rzX8eQUBNb1CFq2BAAECBAj0EtB07JVvqyVAgAABAi0ENGhapLnVItV0q3RbLAECBAgQWEJA03GJNFoEAQIECBAg8FpAg+a1hj+vIKCmV8iiNRAgQIAAgV4Cmo698m21BAgQIECghYAGTYs0t1qkmm6VboslQIAAAQJLCGg6LpFGiyBAgAABAgReC2jQvNbw5xUE1PQKWbQGAgQIECDQS0DTsVe+rZYAAQIECLQQ0KBpkeZWi1TTrdJtsQQIECBAYAkBTccl0mgRBAgQIECAwGsBDZrXGv68goCaXiGL1kCAAAECBHoJaDr2yrfVEiBAgACBFgIaNC3S3GqRarpVui2WAAECBAgsIaDpuEQaLYIAAQIECBB4LaBB81rDn1cQUNMrZNEaCBAgQIBALwFNx175tloCBAgQIPDdAlvTo8rn58+fXz58+PCyHavE/DrO706SL3xY4LV3hT9XrumHk2IgAQIECBAgsJSApuNS6bQYAgQIECAwR2Bryrx///5LI+/jx48v2T8/ffr0Jd7tmD3W1/GNuDdvH/MERj1Xqo9RGxVjVs/zatnMBAgQIEAgs4CmY+bsiI1AAoHtjYJPBvdqIEGZCuEEga0GtmZHlZ8crPpTYSPuzdvHPIHNt9pPwo7aqPI9uBmPmNXzvFo2MwECBAgQyCyg6Zg5O2IjcLHA9iah0k82vf5pIX+e/5No46duvJm8+Bv1pMtved6+r6rku1q8I41V4x7xVzlWdBZzleoSJwECBAgQIDAENB2HhCMBAjcC2xucSj/ZtMXr8zwDP8Fy8y2z9AvVGh7V4h3FUzXuEX+VY0VnMVepLnESIECAAAECQ0DTcUg4EiBwI1DxDc7NIrwwTUB9TKNNOXG1fFeLdyS9atwj/irHis5irlJd4iRAgAABAgSGgKbjkHAkQOBGoOIbnJtFeGGagPqYRpty4mr5rhbvSHrVuEf8VY4VncVcpbrESYAAAQIECAwBTcch4UiAwI1AxTc4N4vwwjQB9TGNNuXE1fJdLd6R9Kpxj/irHCs6i7lKdYmTAAECBAgQGAKajkPCkQCBG4GKb3BuFuGFaQLqYxptyomr5btavCPpVeMe8Vc5VnQWc5XqEicBAgQIECAwBDQdh4QjAQI3AhXf4NwswgvTBNTHNNqUE1fLd7V4R9Krxj3ir3Ks6CzmKtUlTgIECBAgQGAIaDoOCUcCBG4EKr7BuVmEF6YJqI9ptCknrpbvavGOpFeNe8Rf5VjRWcxVqkucBAgQIECAwBDQdBwSjgQI3AhUfINzswgvTBNQH9NoU05cLd/V4h1Jrxr3iL/KsaKzmKtUlzgJECBAgACBIaDpOCQcCRC4Eaj4BudmEV6YJqA+ptGmnLhavqvFO5JeNe4Rf5VjRWcxV6kucRIgQIAAAQJDQNNxSDgSIHAjUPENzs0ivDBNQH1Mo005cbV8V4t3JL1q3CP+KseKzmKuUl3iJECAAAECBIaApuOQcCRA4Eag4hucm0V4YZqA+phGm3LiavmuFu9IetW4R/xVjhWdxVylusRJgAABAgQIDAFNxyHhSIDAjUDFNzg3i/DCNAH1MY025cTV8l0t3pH0qnGP+KscKzqLuUp1iZMAAQIECBAYApqOQ8KRAIEbgYpvcG4W4YVpAupjGm3Kiavlu1q8I+lV4x7xVzlWdBZzleoSJwECBAgQIDAENB2HhCMBAjcCFd/g3CzCC9ME1Mc02pQTV8t3tXhH0qvGPeKvcqzoLOYq1SVOAgQIECBAYAhoOg4JRwIEbgQqvsG5WYQXpgmoj2m0KSeulu9q8Y6kV417xF/lWNFZzFWqS5wECBAgQIDAENB0HBKOBAjcCFR8g3OzCC9ME1Af02hTTlwt39XiHUmvGveIv8qxorOYq1SXOAkQIECAAIEhoOk4JBwJELgRqPgG52YRXpgmoD6m0aacuFq+q8U7kl417hF/lWNFZzFXqS5xEiBAgAABAkNA03FIOBIgcCNQ8Q3OzSK8ME1AfUyjTTlxtXxXi3ckvWrcI/4qx4rOYq5SXeIkQIAAAQIEhoCm45BwJEDgRqDiG5ybRXhhmoD6mEabcuJq+a4W70h61bhH/FWOFZ3FXKW6xEmAAAECBAgMAU3HIeFIgMCNQMU3ODeL8MI0AfUxjTblxNXyXS3ekfSqcY/4qxwrOou5SnWJkwABAgQIEBgCmo5DwpEAgRuBim9wbhbhhWkC6mMabcqJq+W7Wrwj6VXjHvFXOVZ0FnOV6hInAQIECBAgMAQ0HYeEIwECNwIV3+DcLMIL0wTUxzTalBNXy3e1eEfSq8Y94q9yrOgs5irVJU4CBAgQIEBgCGg6DglHAgRuBCq+wblZhBemCaiPabQpJ66W72rxjqRXjXvEX+VY0VnMVapLnAQIECBAgMAQ0HQcEo4ECNwIVHyDc7MIL0wTUB/TaFNOXC3f1eIdSa8a94i/yrGis5irVJc4CRAgQIAAgSGg6TgkHAkQuBGo+AbnZhFemCagPqbRppy4Wr6rxTuSXjXuEX+VY0VnMVepLnESIECAAAECQ0DTcUg4EiBwI1DxDc7NIrwwTUB9TKNNOXG1fFeLdyS9atwj/irHis5irlJd4iRAgAABAgSGgKbjkHAkQOBGoOIbnJtFeGGagPqYRpty4mr5rhbvSHrVuEf8VY4VncVcpbrESYAAAQIECAwBTcch4UiAwI1AxTc4N4vwwjQB9TGNNuXE1fJdLd6R9Kpxj/irHCs6i7lKdYmTAAECBAgQGAKajkPCkQCBG4GKb3BuFuGFaQLqYxptyomr5btavCPpVeMe8Vc5VnQWc5XqEicBAgQIECAwBDQdh4QjAQI3AhXf4NwswgvTBNTHNNqUE1fLd7V4R9Krxj3ir3Ks6CzmKtUlTgIECBAgQGAIaDoOCUcCBG4EKr7BuVmEF6YJqI9ptCknlu9z0sKZ8zkC51xFPZ/j7CoECBAgQCCrgKZj1syIi0ACAW8WEiQhcQjqI3FyJoQm3xNQ35iS8xsoE17iPAH1jSk5v4HiJQIECBAg0EhA07FRsi2VQFTAm4WoWK/x6kO+ewmcs1rfV5zPETjnKur5HGdXIUCAAAECWQU0HbNmRlwEEgh4s5AgCYlDUB+JkzMhNPmegPrGlJzfQJnwEucJqG9MyfkNFC8RIECAAIFGApqOjZJtqQSiAt4sRMV6jVcf8t1L4JzV+r7ifI7AOVdRz+c4uwoBAgQIEMgqoOmYNTPiIpBAwJuFBElIHMLM+tjmjnwmZlomtJn5XgbpgIVwPgDxgSk4P4B0wBDOByCaggABAgQIFBbQdCycPKETmC3gzcJs4drzz6qPbd7379+/fPjw4eXjx493Pz99+vRl7PY1PuYKzMr33Kjrzc75nJxx5nyOgKsQIECAAIHeApqOvfNv9QTuCnhTdpen/clZ9bHNuzUTP3/+vPvTjtuYrTm5fY2PuQKz8j036nqzcz4nZ5w5nyPgKgQIECBAoLeApmPv/Fs9gbsC3pTd5Wl/clZ9ROaNjG2fsCcBqllXi3ekp2rcI/4qx4rOYq5SXeIkQIAAAQIEhoCm45BwJEDgRqDiG5ybRXhhmsCs+ojMGxk7DaLJxNWsq8U7yqhq3CP+KseKzmKuUl3iJECAAAECBIaApuOQcCRA4Eag4hucm0V4YZrArPqIzBsZOw2iycTVrKvFO8qoatwj/irHis5irlJd4iRAgAABAgSGgKbjkHAkQOBGoOIbnJtFeGGawKz6iMwbGTsNosjEm9Uzn9u/n/nov7X5zHX2vnaPe3z9+Pc+v/63QR/9+jHP2ccjnPfWuMr5Z3JzhPMz13/9tXv5GGMr1vRRzntGzhMgQIAAAQI5BTQdc+ZFVARSCGxvdLbfHrwdfRD4WmBWfUTmjYz9Ov5u/733m8D3zm+/sOfR3yq+N9cz5/fyNuYev9l8O47XtuPex+uxV/z5COe9Na5y/pn8HOH8zPVff+1ePsbYijV9lPOekfMECBAgQIBATgFNx5x5ERWBFAIaOinSkDaIWfURmTcyNi3kSYFtVs98HvUTS8/EsH3t3seYv+JPhW2xH+G8Z7TK+ZHr7zke4fw9133ra/byMb6mYk0f5bxn5DwBAgQIECCQU0DTMWdeREUghcD2Rmf7CYvt6IPA1wKz6iMyb2Ts1/H775hANetq8Y5sVI17xF/lWNFZzFWqS5wECBAgQIDAENB0HBKOBAjcCFR8g3OzCC9ME5hVH5F5I2OnQTSZuJp1tXhHGVWNe8Rf5VjRWcxVqkucBAgQIECAwBDQdBwSjgQI3AhUfINzswgvTBOYVR+ReSNjp0E0mZj1OYnmzPkcgXOuop7PcXYVAgQIECCQVUDTMWtmxEUggYA3CwmSkDiEWfWxzfvob0ke/17Y9jU+5grMyvfcqOvNzvmcnHHmfI6AqxAgQIAAgd4Cmo6982/1BO4KeFN2l6f9yVn1sc376G9JHr8ZdfsaH3MFZuV7btT1Zud8Ts44cz5HwFUIECBAgEBvAU3H3vm3egJ3Bbwpu8vT/uTM+tjmjny2T8YJADPzfUL4ZS7B+ZxUceZ8joCrECBAgACB3gKajr3zb/UE7gp4U3aXp/1J9dGrBOT7nHxz5nyOwDlXUc/nOLsKAQIECBDIKqDpmDUz4iKQQMCbhQRJSByC+kicnAmhyfcE1Dem5PwGyoSXOE9AfWNKzm+geIkAAQIECDQS0HRslGxLJRAV8GYhKtZrvPqQ714C56zW9xXncwTOuYp6PsfZVQgQIECAQFYBTcesmREXgQQC3iwkSELiENRH4uRMCE2+J6C+MSXnN1AmvMR5AuobU3J+A8VLBAgQIECgkYCmY6NkWyqBqIA3C1GxXuPVh3xnFqhan1XjzlwLb8VW0VnMb2XSawQIECBAgEBmAU3HzNkRG4GLBSq+wbmYrNXl1UerdH/5beIfP378cqyw8qr1WTXuCjXxOsaKzmJ+nUF/JkCAAAECBCoIaDpWyJIYCVwkUPENzkVULS+rPnqlvVq+q8U7qqlq3CP+KseKzmKuUl3iJECAAAECBIaApuOQcCRA4Eag4hucm0V4YZqA+phGm3LiavmuFu9IetW4R/xVjhWdxVylusRJgAABAgQIDAFNxyHhSIDAjUDFNzg3i/DCNAH1MY025cTV8l0t3pH0qnGP+KscKzqLuUp1iZMAAQIECBAYApqOQ8KRAIEbgYpvcG4W4YVpAupjGm3Kiavlu1q8I+lV4x7xVzlWdBZzleoSJwECBAgQIDAENB2HhCMBAjcCFd/g3CzCC9ME1Mc02pQTV8t3tXhH0qvGPeKvcqzoLOYq1SVOAgQIECBAYAhoOg4JRwIEbgQqvsG5WYQXpgmoj2m0KSeulu9q8Y6kV417xF/lWNFZzFWqS5wECBAgQIDAENB0HBKOBAjcCFR8g3OzCC9ME1Af02hTTlwt39XiHUmvGveIv8qxorOYq1SXOAkQIECAAIEhMKXp+E//9E8vX3+OCz5yrPhQ9ci6jCFQTcD3YrWMnRuv+jjX++qrVct3tXhHfqvGPeKvcqzoLOYq1SVOAgQIECBAYAgc1nT8m7/5m5c//uM/fnn37t3dz5///Ofj2t88Vnyo+uZinCBQWMD3YuHknRC6+jgBOdElquW7Wrwj1VXjHvFXOVZ0FnOV6hInAQIECBAgMAQOaTp+3Wzc/nv7/PM///Mvx6/Pb43J7Schv/VR8aHqW2vxOoHKAr4XK2dvfuzqY75xpitUy3e1eEeuq8Y94q9yrOgs5irVJU4CBAgQIEBgCDzddNwai1sTcWss3mskjguO8dvXfOuj4kPVt9bidQKVBXwvVs7e/NjVx3zjTFeolu9q8Y5cV417xF/lWNFZzFWqS5wECBAgQIDAEPh252+MuHPcmozjr1PfGXZzajQev/VXrSs+VN0s0gsEFhDwvbhAEicuQX1MxE04dbV8V4t3pLxq3CP+KseKzmKuUl3iJECAAAECBIbAU03H7d9x3JqOWxMx8rH3dRUfqiLrN5ZAFQHfi1UydU2c6uMa96uuWi3f1eIdea0a94i/yrGis5irVJc4CRAgQIAAgSGg6TgkHAkQuBGo+AbnZhFemCagPqbRppy4Wr6rxTuSXjXuEX+VY0VnMVepLnESIECAAAECQ+CppuPrv179yL/nOC46frGMv149RBwJ5BSo+AYnp+SaUamPNfP6rVVVy3e1eId71bhH/FWOFZ3FXKW6xEmAAAECBAgMgaeajtskW+Nw/LuO25/vNR+3v1Y9Go5+kcxIgSOBvAIV3+Dk1VwvMvWxXk7vrahavqvFO+yrxj3ir3Ks6CzmKtUlTgIECBAgQGAIPN103CYavxhmNB/3jnu/6briQ9UAdSSwkoDvxZWyefxa1MfxpplnrJbvavGO3FeNe8Rf5VjRWcxVqkucBAgQIECAwBA4pOm4Tbb9hOP2k46vf5LxdfNxe31rTt77ScgRVMWHqhG7I4GVBHwvrpTN49eiPo43zTxjtXxXi3fkvmrcI/4qx4rOYq5SXeIkQIAAAQIEhsBhTccx4RHHig9VR6zbHASyCfhezJaRXPGoj1z5mB1NtXxXi3fkr2rcI/4qx4rOYq5SXeIkQIAAAQIEhoCm45BwJEDgRqDiG5ybRXhhmoD6mEabcuJq+a4W70h61bhH/FWOFZ3FXKW6xEmAAAECBAgMgSlNx+2vUH/9OS74yLHiQ9Uj6zKGQDUB34vVMnZuvOrjXO+rr1Yt39XiHfmtGveIv8qxorOYq1SXOAkQIECAAIEhcFjT8evfTP3633N8/eft333c+6j4ULW3JucJVBTwvVgxa+fFrD7Os85wpWr5rhbvyHHVuEf8VY4VncVcpbrESYAAAQIECAyBQ5qOX//ymO2/xy+OGX9+3Xjc/nzvF8pUfKgaoI4EVhLwvbhSNo9fi/o43jTzjNXyXS3ekfuqcY/4qxwrOou5SnWJkwABAgQIEBgCTzcdt99IvTURt+bivUbiuOAYv33Ntz4qPlR9ay1eJ1BZwPdi5ezNj119zDfOdIVq+a4W78h11bhH/FWOFZ3FXKW6xEmAAAECBAgMgW93/saIO8etyTh+gvHOsJtTo/H4rb9qXfGh6maRXiCwgIDvxQWSOHEJ6mMibsKpq+W7Wrwj5VXjHvFXOVZ0FnOV6hInAQIECBAgMASeajpu/47j1nTcmoiRj72vq/hQFVm/sQSqCPherJKpa+JUH9e4X3XVavmuFu/Ia9W4R/xVjhWdxVylusRJgAABAgQIDAFNxyHhSIDAjUDFNzg3i/DCNAH1MY025cTV8l0t3pH0qnGP+KscKzqLuUp1iZMAAQIECBAYAk81HV//9epH/j3HcdHt33/cfkLSX68eIo4EcgpUfIOTU3LNqNTHmnn91qqq5btavMO9atwj/irHis5irlJd4iRAgAABAgSGwFNNx22SrXE4/l3H7c/3mo/b8OpShQAAIABJREFUX6seDcfta771UfGh6ltr8TqBygLb9+KnT59ePn/+/LL92SeD1zWw1cVWH9trPtYX2PL88ePHMvmuFu+ooKpxj/irHCs6i7lKdYmTAAECBAgQGALf7vyNEQ8cxy+GGc3HvePeb7qu+FD1AJMhBMoJbN+L79+/f/nw4cOXZsPWcPDJYNTAVhdbfWx14mN9gWp7c7V4RwVVjXvEX+VY0VnMVapLnAQIECBAgMAQOKTpuE22/YTj9pOOr3+S8XXzcXt9a07e+0nIEVTFh6oRuyOB1QS270efDO7VwGo1bz1vC2w1UOknn7efxN0a49V+UttPEL9df0e/utVztfqoWNPq+ejKNR8BAgQIEKglcFjT8chlbw+Clf4K15FrNxcBAgQIEMgosO3NlX7yeWuQbvFux/HTuRWOfoL4nOof9VypPirWtHo+p55dhQABAgQIZBU4pem4/XTj+HwEQtPxESVjCBAgQIDAuQLb/lzls+JPhb22PTezPa/22rvCnyvXdM8Ks2oCBAgQIEDgkKbj1lAcf336Nel4/fVfs97+vP1CmXsf24Ofn3S8J+QcAQIECBAgcE/As8Q9HecqCqjpilkTMwECBAgQ6C3wdNNxayCOpuL2bzaOj9evb+e3c6//vcft33/81oeHqm/JeJ0AAQIECBB4RMCzxCNKxlQSUNOVsiVWAgQIECBAYBN4uuk4Go5fNxFHg/Hr1183I7efhHzrw0PVWypeI0CAAAECBB4V8CzxqJRxVQTUdJVMiZMAAQIECBAYAk81Hbem4dZ03BqMrz++9foYszUit6/7uiE5znuoGhKOBAgQIECAwPcIeJb4HjVfk1lATWfOjtgIECBAgACBtwSeajqOn1p8/deqt4t86/URwN55D1VDypEAAQIECBD4HgHPEt+j5msyC6jpzNkRGwECBAgQIPCWwCFNx2/9pOPXzcgRgKbjkHAkQIAAAQIEZgho0MxQNeeVAmr6Sn3XJkCAAAECBL5H4Kmm43bB8W86bo3E1x/j33R8/dr48zjnr1cPEUcCBAgQIEDgSAENmiM1zZVBQE1nyIIYCBAgQIAAgYjA003H8e8zbs3H143H8dOMX/8U5PbTj6NR+a1APVR9S8brBAgQIECAwCMCniUeUTKmkoCarpQtsRIgQIAAAQKbwNNNx22S143EraG4NRq318ZPNI4m4+vjt35z9TafhyrFSYAAAQIECDwj4FniGT1fm1FATWfMipgIECBAgACBewKHNB23C2w/2XivyTgajlsz8l7DcZvLQ9W9lDlHgAABAgQI7Al4ltgTcr6agJquljHxEiBAgAABAoc1HV9Tbk3FrQn5+nOv0fj66z1UvdbwZwIECBAgQCAq4FkiKmZ8dgE1nT1D4iNAgAABAgS+FpjSdPz6ItH/9lAVFTOeAAECBAgQeC3gWeK1hj+vIKCmV8iiNRAgQIAAgV4ChzUdt18os/316vHvOd77ycbxS2a2v2r91oeHqrdUvEaAAAECBAg8KuBZ4lEp46oIqOkqmRInAQIECBAgMAQOaTqOf6/x6+O3moqajoPfkQABAgQIEJghoEEzQ9WcVwqo6Sv1XZsAAQIECBD4HoGnm47jl8dsx+2nG8e/5/j69a8D03T8WsR/EyBAgAABAkcKaNAcqWmuDAJqOkMWxECAAAECBAhEBJ5qOm4NxvHTjW9ddDQev/6JR03Ht7S8RoAAAQIECBAgQIAAAQIECBAgQGANgaeajnvNw43orcbj3tf5P7lrFJdVECBAgAABAgQIECBAgAABAgQI9BSY3nTcWMdPQ27Nxu1D07FnsVk1AQIECBAgQIAAAQIECBAgQIBAD4Gnmo7jr1dvP81472OM25qPW8NR0/GelnMECBAgQIAAAQIECBAgQIAAAQIEags81XTclv71TzF+i2M0GrfxP//5z7983df/1uP4Wn+9ekg4EiBAgAABAgQIECBAgAABAgQIEKgn8HTT8XUz8VtNxMHyeuzWfPzWeE3HIfbccXP0yUANqAE1oAbUgBpQA2pADagBNaAG1IAaUAPX1cBz3Z26X/1003Fb+mgmfquJ+Jpn+6vWb/1ymddjtm+Ejx8/fmmYvX7dnx8X2Azfv3//8unTpy+Wm6dPBmpADagBNaAG1IAaUANqQA2oATWgBtSAGjinBraezNab2Xo0HT8OaTp+D9zWfNw+3/rQdHxLJfbaZvjhw4eXz58/+2lHP/GpBtSAGlADakANqAE1oAbUgBpQA2pADaiBk2tg68lsvRlNx1hPa+poTcfneRk+b2gGAgQIECBAgAABAgQIECBAgMD3CnTvzVz2k473EtY9KfdsHj3H8FEp4wgQIECAAAECBAgQIECAAAECxwt0781oOh5fUylm7F7YKZIgCAIECBAgQIAAAQIECBAgQKCtQPfejKbjoqXfvbAXTatlESBAgAABAgQIECBAgAABAkUEuvdmNB2LFGo0zO6FHfUyngABAgQIECBAgAABAgQIECBwpED33oym45HVlGiu7oWdKBVCIUCAAAECBAgQIECAAAECBBoKdO/NaDouWvTdC3vRtFoWAQIECBAgQIAAAQIECBAgUESge29G07FIoUbD7F7YUS/jCRAgQIAAAQIECBAgQIAAAQJHCnTvzWg6HllNiebqXtiJUiEUAgQIECBAgAABAgQIECBAoKFA996MpuOiRd+9sBdNq2URIECAAAECBAgQIECAAAECRQS692Y0HYsUajTM7oUd9TKeAAECBAgQIECAAAECBAgQIHCkQPfejKbjkdWUaK7uhZ0oFUIhQIAAAQIECBAgQIAAAQIEGgp0781oOi5a9N0Le9G0WhYBAgQIECBAgAABAgQIECBQRKB7b0bTsUihRsPsXthRL+MJECBAgAABAgQIECBAgAABAkcKdO/NaDoeWU2J5upe2IlSIRQCBAgQIECAAAECBAgQIECgoUD33oym46JF372wF02rZREgQIAAAQIECBAgQIAAAQJFBLr3ZjQdixRqNMzuhR31Mp4AAQIECBAgQIAAAQIECBAgcKRA996MpuOR1ZRoru6FnSgVQiFAgAABAgQIECBAgAABAgQaCnTvzWg6Llr03Qt70bRaFgECBAgQIECAAAECBAgQIFBEoHtvRtOxSKFGw+xe2FEv4wkQIECAAAECBAgQIECAAAECRwp0781oOh5ZTYnm6l7YiVIhFAIECBAgQIAAAQIECBAgQKChQPfejKbjokXfvbAXTatlESBAgAABAgQIECBAgAABAkUEuvdmNB2LFGo0zO6FHfUyngABAgQIECBAgAABAgQIECBwpED33oym45HVlGiu7oWdKBVCIUCAAAECBAgQIECAAAECBBoKdO/NaDouWvTdC3vRtFoWAQIECBAgQIAAAQIECBAgUESge29G07FIoUbD7F7YUS/jCRAgQIAAAQIECBAgQIAAAQJHCnTvzWg6HllNiebqXtiJUiEUAgQIECBAgAABAgQIECBAoKFA996MpuOiRd+9sBdNq2URIECAAAECBAgQIECAAAECRQS692Y0HYsUajTM7oUd9TKeAAECBAgQIECAAAECBAgQIHCkQPfejKbjkdWUaK7uhZ0oFUIhQIAAAQIECBAgQIAAAQIEGgp0781oOi5a9N0Le9G0WhYBAgQIECBAgAABAgQIECBQRKB7b0bTsUihRsPsXthRL+MJECBAgAABAgQIECBAgAABAkcKdO/NaDoeWU2J5upe2IlSIRQCBAgQIECAAAECBAgQIECgoUD33oym46JF372wF02rZREgQIAAAQIECBAgQIAAAQJFBLr3ZjQdixRqNMzuhR31Mp4AAQIECBAgQIAAAQIECBAgcKRA996MpuOR1ZRoru6FnSgVQiFAgAABAgQIECBAgAABAgQaCnTvzWg6Llr03Qt70bRaFgECBAgQIECAAAECBAgQIFBEoHtvRtOxSKFGw+xe2FEv4wkQIECAAAECBAgQIECAAAECRwp0781oOh5ZTYnm6l7YiVIhFAIECBAgQIAAAQIECBAgQKChQPfejKbjokXfvbAXTatlESBAgAABAgQIECBAgAABAkUEuvdmNB2LFGo0zO6FHfUyngABAgQIECBAgAABAgQIECBwpED33oym45HVlGiu7oWdKBVCIUCAAAECBAgQIECAAAECBBoKdO/NaDouWvTdC3vRtFoWAQIECBAgQIAAAQIECBAgUESge29G07FIoUbD7F7YUS/jCRAgQIAAAQIECBAgQIAAAQJHCnTvzWg6HllNiebqXtiJUiEUAgQIECBAgAABAgQIECBAoKFA996MpuOiRd+9sBdNq2URIECAAAECBAgQIECAAAECRQS692Y0HYsUajTM7oUd9TKeAAECBAgQIECAAAECBAgQIHCkQPfejKbjkdWUaK7uhZ0oFUIhQIAAAQIECBAgQIAAAQIEGgp0781oOi5a9N0Le9G0WhYBAgQIECBAgAABAgQIECBQRKB7b0bTsUihRsPsXthRL+MJECBAgAABAgQIECBAgAABAkcKdO/NaDoeWU2J5upe2IlSIRQCBAgQIECAAAECBAgQIECgoUD33oym46JF372wF02rZREgQIAAAQIECBAgQIAAAQJFBLr3ZjQdixRqNMzuhR31Mp4AAQIECBAgQIAAAQIECBAgcKRA996MpuOR1ZRoru6FnSgVQiFAgAABAgQIECBAgAABAgQaCnTvzWg6Llr03Qt70bRaFgECBAgQIECAAAECBAgQIFBEoHtvRtOxSKFGw+xe2FEv4wkQIECAAAECBAgQIECAAAECRwp0781oOh5ZTYnm6l7YiVIhFAIECBAgQIAAAQIECBAgQKChQPfejKbjokXfvbAXTatlESBAgAABAgQIECBAgAABAkUEuvdmNB2LFGo0zO6FHfUyngABAgQIECBAgAABAgQIECBwpED33oym45HVlGiu7oWdKBVCIUCAAAECBAgQIECAAAECBBoKdO/NaDouWvTdC3vRtFoWAQIECBAgQIAAAQIECBAgUESge29G07FIoUbD7F7YUS/jCRAgQIAAAQIECBAgQIAAAQJHCnTvzWg6HllNiebqXtiJUiEUAgQIECBAgAABAgQIECBAoKFA996MpuOiRd+9sBdNq2URIECAAAECBAgQIECAAAECRQS692Y0HYsUajTM7oUd9TKeAAECBAgQIECAAAECBAgQIHCkQPfejKbjkdWUaK7uhZ0oFUIhQIAAAQIECBAgQIAAAQIEGgp0781oOi5a9N0Le9G0WhYBAgQIECBAgAABAgQIECBQRKB7b0bTsUihRsPsXthRL+MJECBAgAABAgQIECBAgAABAkcKdO/NaDoeWU2J5upe2IlSIRQCBAgQIECAAAECBAgQIECgoUD33oym46JF372wF02rZREgQIAAAQIECBAgQIAAAQJFBLr3ZjQdixRqNMzuhR31Mp4AAQIECBAgQIAAAQIECBAgcKRA996MpuOR1ZRoru6FnSgVQiFAgAABAgQIECBAgAABAgQaCnTvzWg6Llr03Qt70bRaFgECBAgQIECAAAECBAgQIFBEoHtvRtOxSKFGw+xe2FEv4wkQIECAAAECBAgQIECAAAECRwp0781oOh5ZTYnm6l7YiVIhFAIECBAgQIAAAQIECBAgQKChQPfejKbjokXfvbAXTatlESBAgAABAgQIECBAgAABAkUEuvdmNB2LFGo0zO6FHfUyngABAgQIECBAgAABAgQIECBwpED33oym45HVlGiu7oWdKBVCIUCAAAECBAgQIECAAAECBBoKdO/NaDouWvTdC3vRtFoWAQIECBAgQIAAAQIECBAgUESge29G07FIoUbD7F7YUS/jCRAgQIAAAQIECBAgQIAAAQJHCnTvzWg6HllNiebqXtiJUiEUAgQIECBAgAABAgQIECBAoKFA996MpuOiRd+9sBdNq2URIECAAAECBAgQIECAAAECRQS692Y0HYsUajTM7oUd9TKeAAECBAgQIECAAAECBAgQIHCkQPfejKbjkdWUaK7uhZ0oFUIhQIAAAQIECBAgQIAAAQIEGgp0781oOi5a9N0Le9G0WhYBAgQIECBAgAABAgQIECBQRKB7b0bTsUihRsPsXthRL+MJECBAgAABAgQIECBAgAABAkcKdO/NaDoeWU2J5upe2IlSIRQCBAgQIECAAAECBAgQIECgoUD33oym46JF372wF02rZREgQIAAAQIECBAgQIAAAQJFBLr3ZjQdixRqNMzuhR31Mp4AAQIECBAgQIAAAQIECBAgcKRA996MpuOR1ZRoru6FnSgVQiFAgAABAgQIECBAgAABAgQaCnTvzWg6Llr03Qt70bRaFgECBAgQIECAAAECBAgQIFBEoHtvRtOxSKFGw+xe2FEv4wkQIECAAAECBAgQIECAAAECRwp0781oOh5ZTYnm6l7YiVIhFAIECBAgQIAAAQIECBAgQKChQPfejKbjokXfvbAXTatlESBAgAABAgQIECBAgAABAkUEuvdmNB2LFGo0zO6FHfUyngABAgQIECBAgAABAgQIECBwpED33oym45HVlGiu7oWdKBVCIUCAAAECBAgQIECAAAECBBoKdO/NaDouWvTdC3vRtFoWAQIECBAgQIAAAQIECBAgUESge29G07FIoUbD7F7YUS/jCRAgQIAAAQIECBAgQIAAAQJHCnTvzWg6HllNiebqXtiJUiEUAgQIECBAgAABAgQIECBAoKFA996MpuOiRd+9sBdNq2URIECAAAECBAgQIECAAAECRQS692Y0HYsUajTM7oUd9TKeAAECBAgQIECAAAECBAgQIHCkQPfejKbjkdWUaK7uhZ0oFUIhQIAAAQIECBAgQIAAAQIEGgp0781oOi5a9N0Le9G0WhYBAgQIECBAgAABAgQIECBQRKB7b0bTsUihRsPsXthRL+MJECBAgAABAgQIECBAgAABAkcKdO/NaDoeWU2J5upe2IlSIRQCBAgQIECAAAECBAgQIECgoUD33oym46JF372wF02rZREgQIAAAQIECBAgQIAAAQJFBLr3ZjQdixRqNMzuhR31Mp4AAQIECBAgQIAAAQIECBAgcKRA996MpuOR1ZRoru6FnSgVQiFAgAABAgQIECBAgAABAgQaCnTvzWg6Llr03Qt70bRaFgECBAgQIECAAAECBAgQIFBEoHtvRtOxSKFGw+xe2FEv4wkQIECAAAECBAgQIECAAAECRwp0781oOh5ZTYnm6l7YiVIhFAIECBAgQIAAAQIECBAgQKChQPfejKbjokXfvbAXTatlESBAgAABAgQIECBAgAABAkUEuvdmNB2LFGo0zO6FHfUyngABAgQIECBAgAABAgQIECBwpED33oym45HVlGiu7oWdKBVCIUCAAAECBAgQIECAAAECBBoKdO/NaDouWvTdC3vRtFoWAQIECBAgQIAAAQIECBAgUESge29G07FIoUbD7F7YUS/jCRAgQIAAAQIECBAgQIAAAQJHCnTvzWg6HllNiebqXtiJUiEUAgQIECBAgAABAgQIECBAoKFA996MpuOiRd+9sBdNq2URIECAAAECBAgQIECAAAECRQS692Y0HYsUajTM7oUd9TKeAAECBAgQIECAAAECBAgQIHCkQPfejKbjkdWUaK7uhZ0oFUIhQIAAAQIECBAgQIAAAQIEGgp0781oOi5a9N0Le9G0WhYBAgQIECBAgAABAgQIECBQRKB7b0bTsUihRsPsXthRL+MJECBAgAABAgQIECBAgAABAkcKdO/NaDoeWU2J5upe2IlSIRQCBAgQIECAAAECBAgQIECgoUD33oym46JF372wF02rZREgQIAAAQIECBAgQIAAAQJFBLr3ZjQdixRqNMzuhR31Mp4AAQIECBAgQIAAAQIECBAgcKRA996MpuOR1ZRoru6FnSgVQiFAgAABAgQIECBAgAABAgQaCnTvzWg6Llr03Qt70bRaFgECBAgQIECAAAECBAgQIFBEoHtvRtOxSKFGw+xe2FEv4wkQIECAAAECBAgQIECAAAECRwp0781oOh5ZTYnm6l7YiVIhFAIECBAgQIAAAQIECBAgQKChQPfejKbjokXfvbAXTatlESBAgAABAgQIECBAgAABAkUEuvdmNB2LFGo0zO6FHfUyngABAgQIECBAgAABAgQIECBwpED33oym45HVlGiu7oWdKBVCIUCAAAECBAgQIECAAAECBBoKdO/NaDouWvTdC3vRtFoWAQIECBAgQIAAAQIECBAgUESge29G07FIoUbD7F7YUS/jCRAgQIAAAQIECBAgQIAAAQJHCnTvzWg6HllNiebqXtiJUiEUAgQIECBAgAABAgQIECBAoKFA996MpuOiRd+9sBdNq2URIECAAAECBAgQIECAAAECRQS692Y0HYsUajTM7oUd9TKeAAECBAgQIECAAAECBAgQIHCkQPfejKbjkdWUaK7uhZ0oFUIhQIAAAQIECBAgQIAAAQIEGgp0781oOi5a9N0Le9G0WhYBAgQIECBAgAABAgQIECBQRKB7b0bTsUihRsPsXthRL+MJECBAgAABAgQIECBAgAABAkcKdO/NaDoeWU2J5upe2IlSIRQCBAgQIECAAAECBAgQIECgoUD33oym46JF372wF02rZREgQIAAAQIECBAgQIAAAQJFBLr3ZjQdixRqNMzuhR31Mp4AAQIECBAgQIAAAQIECBAgcKRA996MpuOR1ZRoru6FnSgVQiFAgAABAgQIECBAgAABAgQaCnTvzWg6Llr03Qt70bRaFgECBAgQIECAAAECBAgQIFBEoHtvRtOxSKFGw+xe2FEv4wkQIECAAAECBAgQIECAAAECRwp0781oOh5ZTYnm6l7YiVIhFAIECBAgQIAAAQIECBAgQKChQPfejKbjokXfvbAXTatlESBAgAABAgQIECBAgAABAkUEuvdmNB2LFGo0zO6FHfUyngABAgQIECBAgAABAgQIECBwpED33oym45HVlGiu7oWdKBVCIUCAAAECBAgQIECAAAECBBoKdO/NaDouWvTdC3vRtFoWAQIECBAgQIAAAQIECBAgUESge29G07FIoUbD7F7YUS/jCRAgQIAAAQIECBAgQIAAAQJHCnTvzWg6HllNiebqXtiJUiEUAgQIECBAgAABAgQIECBAoKFA996MpuOiRd+9sBdNq2URIECAAAECBAgQIECAAAECRQS692Y0HYsUajTM7oUd9TKeAAECBAgQIECAAAECBAgQIHCkQPfejKbjkdWUaK7uhZ0oFUIhQIAAAQIECBAgQIAAAQIEGgp0781oOi5a9N0Le9G0WhYBAgQIECBAgAABAgQIECBQRKB7b0bTsUihRsPsXthRL+MJECBAgAABAgQIECBAgAABAkcKdO/NaDoeWU2J5upe2IlSIRQCBAgQIECAAAECBAgQIECgoUD33oym46JF372wF02rZREgQIAAAQIECBAgQIAAAQJFBLr3ZjQdixRqNMzuhR31Mp4AAQIECBAgQIAAAQIECBAgcKRA996MpuOR1ZRoru6FnSgVQiFAgAABAgQIECBAgAABAgQaCnTvzWg6Llr03Qt70bRaFgECBAgQIECAAAECBAgQIFBEoHtvRtOxSKFGw+xe2FEv4wkQIECAAAECBAgQIECAAAECRwp0781oOh5ZTYnm6l7YiVIhFAIECBAgQIAAAQIECBAgQKChQPfejKbjokXfvbAXTatlESBAgAABAgQIECBAgAABAkUEuvdmNB2LFGo0zO6FHfUyngABAgQIECBAgAABAgQIECBwpED33oym45HVlGiu7oWdKBVCIUCAAAECBAgQIECAAAECBBoKdO/NaDouWvTdC3vRtFoWAQIECBAgQIAAAQIECBAgUESge29G07FIoUbD7F7YUS/jCRAgQIAAAQIECBAgQIAAAQJHCnTvzWg6HllNiebqXtiJUiEUAgQIECBAgAABAgQIECBAoKFA996MpuOiRd+9sBdNq2URIECAAAECBAgQIECAAAECRQS692Y0HYsUajTM7oUd9TKeAAECBAgQIECAAAECBAgQIHCkQPfejKbjkdWUaK7uhZ0oFUIhQIAAAQIECBAgQIAAAQIEGgp0781oOi5a9N0Le9G0WhYBAgQIECBAgAABAgQIECBQRKB7b0bTsUihRsPsXthRL+MJECBAgAABAgQIECBAgAABAkcKdO/NaDoeWU2J5upe2IlSIRQCBAgQIECAAAECBAgQIECgoUD33oym46JF372wF02rZREgQIAAAQIECBAgQIAAAQJFBLr3ZjQdixRqNMzuhR31Mp4AAQIECBAgQIAAAQIECBAgcKRA996MpuOR1ZRoru6FnSgVQiFAgAABAgQIECBAgAABAgQaCnTvzWg6Llr03Qt70bRaFgECBAgQIECAAAECBAgQIFBEoHtvRtOxSKFGw+xe2FEv4wkQIECAAAECBAgQIECAAAECRwp0781oOh5ZTYnm6l7YiVIhFAIECBAgQIAAAQIECBAgQKChQPfejKbjokXfvbAXTatlESBAgAABAgQIECBAgAABAkUEuvdmNB2LFGo0zO6FHfUyngABAgQIECBAgAABAgQIECBwpED33oym45HVlGiu7oWdKBVCIUCAAAECBAgQIECAAAECBBoKdO/NaDouWvTdC3vRtFoWAQIECBAgQIAAAQIECBAgUESge29G07FIoUbD7F7YUS/jCRAgQIAAAQIECBAgQIAAAQJHCnTvzWg6HllNiebqXtiJUiEUAgQIECBAgAABAgQIECBAoKFA996MpuOiRd+9sBdNq2URIECAAAECBAgQIECAAAECRQS692Y0HYsUajTM7oUd9TKeAAECBAgQIECAAAECBAgQIHCkQPfejKbjkdWUaK7uhZ0oFUIhQIAAAQIECBAqZWvoAAAaF0lEQVQgQIAAAQIEGgp0781oOi5a9N0Le9G0WhYBAgQIECBAgAABAgQIECBQRKB7b0bTsUihRsPsXthRL+MJECBAgAABAgQIECBAgAABAkcKdO/NaDoeWU2J5upe2IlSIRQCBAgQIECAAAECBAgQIECgoUD33oym46JF372wF02rZREgQIAAAQIECBAgQIAAAQJFBLr3ZjQdixRqNMzuhR31Mp4AAQIECBAgQIAAAQIECBAgcKRA996MpuOR1ZRoru6FnSgVQiFAgAABAgQIECBAgAABAgQaCnTvzWg6Llr03Qt70bRaFgECBAgQIECAAAECBAgQIFBEoHtvRtOxSKFGw+xe2FEv4wkQIECAAAECBAgQIECAAAECRwp0781oOh5ZTYnm6l7YiVIhFAIECBAgQIAAAQIECBAgQKChQPfejKbjokXfvbAXTatlESBAgAABAgQIECBAgAABAkUEuvdmNB2LFGo0zO6FHfUyngABAgQIECBAgAABAgQIECBwpED33oym45HVlGiu7oWdKBVCIUCAAAECBAgQIECAAAECBBoKdO/NaDouWvTdC3vRtFoWAQIECBAgQIAAAQIECBAgUESge29G07FIoUbD7F7YUS/jCRAgQIAAAQIECBAgQIAAAQJHCnTvzWg6HllNiebqXtiJUiEUAgQIECBAgAABAgQIECBAoKFA996MpuOiRd+9sBdNq2URIECAAAECBAgQIECAAAECRQS692Y0HYsUajTM7oUd9TKeAAECBAgQIECAAAECBAgQIHCkQPfejKbjkdWUaK7uhZ0oFUIhQIAAAQIECBAgQIAAAQIEGgp0781oOi5a9N0Le9G0WhYBAgQIECBAgAABAgQIECBQRKB7b0bTsUihRsPsXthRL+MJECBAgAABAgQIECBAgAABAkcKdO/NaDoeWU2J5upe2IlSIRQCBAgQIECAAAECBAgQIECgoUD33oym46JF372wF02rZREgQIAAAQIECBAgQIAAAQJFBLr3ZjQdixRqNMzuhR31Mp4AAQIECBAgQIAAAQIECBAgcKRA996MpuOR1ZRoru6FnSgVQiFAgAABAgQIECBAgAABAgQaCnTvzWg6Llr03Qt70bRaFgECBAgQIECAAAECBAgQIFBEoHtvRtOxSKFGw+xe2FEv4wkQIECAAAECBAgQIECAAAECRwp0781oOh5ZTYnm6l7YiVIhFAIECBAgQIAAAQIECBAgQKChQPfejKbjokXfvbAXTatlESBAgAABAgQIECBAgAABAkUEuvdmNB2LFGo0zO6FHfUyngABAgQIECBAgAABAgQIECBwpED33oym45HVlGiu7oWdKBVCIUCAAAECBAgQIECAAAECBBoKdO/NaDouWvTdC3vRtFoWAQIECBAgQIAAAQIECBAgUESge29G07FIoUbD7F7YUS/jCRAgQIAAAQIECBAgQIAAAQJHCnTvzWg6HllNiebqXtiJUiEUAgQIECBAgAABAgQIECBAoKFA996MpuOiRd+9sBdNq2URIECAAAECBAgQIECAAAECRQS692Y0HYsUajTM7oUd9TKeAAECBAgQIECAAAECBAgQIHCkQPfejKbjkdWUaK7uhZ0oFUIhQIAAAQIECBAgQIAAAQIEGgp0781oOi5a9N0Le9G0WhYBAgQIECBAgAABAgQIECBQRKB7b0bTsUihRsPsXthRL+MJECBAgAABAgQIECBAgAABAkcKdO/NaDoeWU2J5upe2IlSIRQCBAgQIECAAAECBAgQIECgoUD33oym46JF372wF02rZREgQIAAAQIECBAgQIAAAQJFBLr3ZjQdixRqNMzuhR31Mp4AAQIECBAgQIAAAQIECBAgcKRA996MpuOR1ZRoru6FnSgVQiFAgAABAgQIECBAgAABAgQaCnTvzWg6Llr03Qt70bRaFgECBAgQIECAAAECBAgQIFBEoHtvRtOxSKFGw+xe2FEv4wkQIECAAAECBAgQIECAAAECRwp0781oOh5ZTYnm6l7YiVIhFAIECBAgQIAAAQIECBAgQKChQPfejKbjokXfvbAXTatlESBAgAABAgQIECBAgAABAkUEuvdmNB2LFGo0zO6FHfUyngABAgQIECBAgAABAgQIECBwpED33oym45HVlGiu7oWdKBVCIUCAAAECBAgQIECAAAECBBoKdO/NaDouWvTdC3vRtFoWAQIECBAgQIAAAQIECBAgUESge29G07FIoUbD7F7YUS/jCRAgQIAAAQIECBAgQIAAAQJHCnTvzWg6HllNiebqXtiJUiEUAgQIECBAgAABAgQIECBAoKFA996MpuOiRd+9sBdNq2URIECAAAECBAgQIECAAAECRQS692Y0HYsUajTM7oUd9TKeAAECBAgQIECAAAECBAgQIHCkQPfejKbjkdWUaK7uhZ0oFUIhQIAAAQIECBAgQIAAAQIEGgp0781oOi5a9N0Le9G0WhYBAgQIECBAgAABAgQIECBQRKB7b0bTsUihRsPsXthRL+MJECBAgAABAgQIECBAgAABAkcKdO/NaDoeWU2J5upe2IlSIRQCBAgQIECAAAECBAgQIECgoUD33oym46JF372wF02rZREgQIAAAQIECBAgQIAAAQJFBLr3ZjQdixRqNMzuhR31Mp4AAQIECBAgQIAAAQIECBAgcKRA996MpuOR1ZRoru6FnSgVQiFAgAABAgQIECBAgAABAgQaCnTvzaRsOn7+/Pnl/fv3L9vRx/cJdC/s71PzVQQIECBAgAABAgQIECBAgACBYwS692ZSNh27J+WI0mZ4hKI5CBAgQIAAAQIECBAgQIAAAQLfJ9C9N6Pp+H11k/6ruhd2+gQJkAABAgQIECBAgAABAgQIEFhaoHtvRtNx0fLuXtiLptWyCBAgQIAAAQIECBAgQIAAgSIC3Xszmo5FCjUaZvfCjnoZT4AAAQIECBAgQIAAAQIECBA4UqB7b0bT8chqSjRX98JOlAqhECBAgAABAgQIECBAgAABAg0FuvdmNB0XLfruhb1oWi2LAAECBAgQIECAAAECBAgQKCLQvTej6VikUKNhdi/sqJfxBAgQIECAAAECBAgQIECAAIEjBbr3ZjQdj6ymRHN1L+xEqRAKAQIECBAgQIAAAQIECBAg0FCge29G03HRou9e2Ium1bIIECBAgAABAgQIECBAgACBIgLdezOajkUKNRpm98KOehlPgAABAgQIECBAgAABAgQIEDhSoHtvRtPxyGpKNFf3wk6UCqEQIECAAAECBAgQIECAAAECDQW692Y0HRct+u6FvWhaLYsAAQIECBAgQIAAAQIECBAoItC9N6PpWKRQo2F2L+yol/EECBAgQIAAAQIECBAgQIAAgSMFuvdmNB2PrKZEc3Uv7ESpEAoBAgQIECBAgAABAgQIECDQUKB7b+aSpuOGfu/z8+fPLx8+fHjZjvfGdT6397262TC8X2ed68fa1YYaUANqQA2oATWgBtSAGlADakANqIG5NbD1tT59+vSlt7XXx1nx/CVNx48fP77c+/zhhx9e3r1797Id743rfG6vGDe/9+/ffynuzk7/2979q0bR/XEAFrtcRBBBbyBXINooWCSF12FlytS5AxFyARbWNhpIETvbBKwsjYVNAoEYwrx8F07edbN/Z2ez58x5FvLbTWbOzJnnfF748XF217VP/2+NDx8ZkAEZkAEZkAEZkAEZkAEZkAEZWE0G4maw6Gei3K3xsZbScVaTfnx8PFiUo6MjdzpOuCt0nrDOcrZ9tf+iwZevDMiADMiADMiADMiADMiADMiADMjAPB1OH/dZS+k4C/Lr16+D0vHjx4+zdrWdAAECBAgQIECAAAECBAgQIECAAIHMBLIsHQ8ODgal497eXmZcpkOAAAECBAgQIECAAAECBAgQIECAwCyBLEvH3d3dQem4tbXVXF1dzboG2wkQIECAAAECBAgQIECAAAECBAgQyEggu9Lx5uam2dnZGZSO8UGmf/78yYjLVAgQIECAAAECBAgQIECAAAECBAgQmCWQXen49+/fJu5wjG/3iZ+Tk5NZ12A7AQIECBAgQIAAAQIECBAgQIAAAQIZCWRXOl5cXDSPHz++LR0/ffqUEZepECBAgAABAgQIECBAgAABAgQIECAwSyC70vHs7Oy2cIw7Hd+9ezfrGmwnQIAAAQIECBAgQIAAAQIECBAgQCAjgexKx9PT039Kx2fPnjXX19cZkZkKAQIECBAgQIAAAQIECBAgQIAAAQLTBLIrHQ8PD/8pHeOt1ufn59OuwbYRgd+/fzfxJTzx7EGAAAECBAgQIECAAAECBAgQIHD/ArX3M9mVjgcHB/+UjvEW658/f95/Mgo+Y+2hLnjpTJ0AAQIECBAgQIAAAQIECBDoiUDt/Ux2pePu7u6d0vHLly89idv9XEbtob4fZWchQIAAAQIECBAgQIAAAQIECEwWqL2fyap0vLm5aXZ2du6Ujvv7+5NX0JY7ArWH+g6IPxAgQIAAAQIECBAgQIAAAQIE7lmg9n4mq9Lx6uqq2draulM6bm9vN1FIeswnUHuo51OyFwECBAgQIECAAAECBAgQIEBgdQK19zNZlY4XFxeDL0CJz3Ec/nn58mVzeXm5uhT07Mi1h7pny+lyCBAgQIAAAQIECBAgQIAAgQIFau9nsiodz87Omo2Njeb169eD5+fPnzebm5uD179+/SowXuuZcu2hXo+6sxIgQIAAAQIECBAgQIAAAQIE/heovZ/JqnSMZYkF+fHjx6BsjOf4PX485heoPdTzS9mTAAECBAgQIECAAAECBAgQILAagdr7mexKx1jm2hdl2ajzW1bQeAIECBAgQIAAAQIECBAgQIDAcgK19zNKx+Xyk+Xo2kOd5aKYFAECBAgQIECAAAECBAgQIFCVQO39jNKxh3GvPdQ9XFKXRIAAAQIECBAgQIAAAQIECBQmUHs/o3QsLLDzTLf2UM9jZB8CBAgQIECAAAECBAgQIECAwCoFau9nlI6rTNeajl17qNfE7rQECBAgQIAAAQIECBAgQIAAgVuB2vsZpeNtFPrzovZQ92clXQkBAgQIECBAgAABAgQIECBQqkDt/YzSsdTkTpl37aGeQmMTAQIECBAgQIAAAQIECBAgQOBeBGrvZ5SO9xKz+z1J7aG+X21nI0CAAAECBAgQIECAAAECBAjcFai9n1E63s1E8X+pPdTFL6ALIECAAAEChQm8evWqefDgwdifJ0+ejL2at2/f/rN/HOPbt29j940/Lrp/2zETJ2ADAQIECBAgQGBBgdr7GaXjgoEpYffaQ13CGpkjAQIECBDok0AUi4uUjtNKynEui+4fx2gzZty5/Y0AAQIECBAg0Fag9n5G6dg2ORmPqz3UGS+NqREgQIAAgV4KROE46Y7G0Qv+8OHDbUGZ7myM51RcRlk4/Fh0/xjbZszwOb0mQIAAAQIECHQhUHs/o3TsIkWZHaP2UGe2HKZDgAABAgR6LRCFYZSOo2XhpItO5WIUg6OPdLdkKiNj+6L7tx0zOhe/EyBAgAABAgSWFai9n1E6LpugDMfXHuoMl8SUCBAgQIBAbwXSZy2OKxHHXXQqFsdtG3esRfeP47YZM24+/kaAAAECBAgQWEag9n5G6bhMejIdW3uoM10W0yJAgAABAr0USJ+dGKVjuisxSr94PXzHYlz8rLsi09uio3xss3/bMYOT+R8CBAgQIECAQMcCtfczSseOA5XD4WoPdQ5rYA4ECBAgQKAWgeGiMd1hOPw8fAdkKhUnvRV7dPvo76Om47aP+9vwuFnbh/f1mgABAgQIECCwjEDt/UyWpeMyC2ps09QeahkgQIAAAQIE7k8gFYzp7sR05nQHZGxPj1T4je6bto/eCbno/nGcNmPS+T0TIECAAAECBLoUqL2f+f//BXap6lhrFag91GvFd3ICBAgQIEDgViAVj6lkXLQQXHT/OHGbMbcT9oIAAQIECBAg0KFA7f2M0rHDMOVyqNpDncs6mAcBAgQIEKhdIBWA6e3Uo7+P+oxuH/191v6xvc2Y0eP6nQABAgQIECDQhUDt/YzSsYsUZXaM2kOd2XKYDgECBAgQqFZg9O3So7+PwqTCMN0Zuej+cbw2Y0bn4XcCBAgQIECAQBcCtfczSscuUpTZMWoPdWbLYToECBAgQKBagVQipjsdAyI+4zG+fGbcI8rG2B7j0mPR/WNcmzHpfJ4JECBAgAABAl0J1N7PKB27SlJGx6k91BkthakQIECAAIFeC4wrFYcvOH2z9XCJOO5vaUyUhfETdyumx6L7x7g2Y9L5PBMgQIAAAQIEuhKovZ9ROnaVpIyOU3uoM1oKUyFAgAABAr0XSEXh8N2MURqm4i+ehx+pqIxxqYwc3n/4ODFu0f3bjhmeo9cECBAgQIAAgS4Eau9nlI5dpCizY9Qe6syWw3QIECBAgECvBYZLwVRADj8P37WYIKJYHN5n+HXaZ/h50f1jbJsxw+f0mgABAgQIECCwrEDt/YzScdkEZTi+9lBnuCSmRIAAAQIEei0wfKdiKhCj9BtXOCaI9PmNq9o/zrPoOdLcPBMgQIAAAQIEuhCovZ9ROnaRosyOUXuoM1sO0yFAgAABAgQIECBAgAABAgQqFKi9n1E69jD0tYe6h0vqkggQIECAAAECBAgQIECAAIHCBGrvZ5SOmQb27Oysubi4aK6urpqbm5uFZll7qBfCsjMBAgQIECBAgAABAgQIECBAYAUCbfuZ6IGiD4peKPqhUh9KxwxXLkK5sbHRvHjxotna2mp2dnaa3d3d5uDgoDk8PGxOT08HoYvw/f37904p2TbUGVKYEgECBAgQIECAAAECBAgQIECgSIFJ/UyUitHnpFIxep7oe6L3if4neqDogx49ejToh+I4JT6UjitctQhFm58fP35M/EbH9GHrEbzHjx/fKSW/fv3afP/+vXnz5k0Tx2lz/hizzNi25zSuXV64cZMBGZABGZABGZABGZABGZABGZCB1WRgmX4kxkY/c3x83ERfM1oqRq+Tep5Jz69fv166o1lh9TX10ErHqTzLbYxisM3P5ubmzNBNCmP6+8OHD5s4Tpvzx5i407LtWOParTs3bjIgAzIgAzIgAzIgAzIgAzIgAzKQVwaW6Ue66Hfi/Mv0O5GndT2UjiuUb/uvDNGEp/JwnucIUNx2u7e313z8+LE5Ojpyp2PLu0zbrplxq/kXJa5cZUAGZEAGZEAGZEAGZEAGZEAG1pmBLu50/Pz5c/P+/ftBb5PeNj1P3xP7PH/+3J2OK+zuqjt0/Mc0KXxx6+2zZ8+ad+/eNZ8+fWpOTk6aP3/+DD5gNEHF+Cgi49mDAAECBAgQIECAAAECBAgQIEDg/gXG9TPxBTHR40SfE71O9DvR80x6q3Xc5Vhqv+NOx/vP3MwzRpji9tmnT58229vbzf7+fvPly5fm58+fzfn5eXN9fT31GONCPXWAjQQIECBAgAABAgQIECBAgAABAp0KzNvPRM8TfU/0PtH/RA8UfdDLly99kUynK+JgA4Ffv341l5eXd76Zeh6eeUM9z7HsQ4AAAQIECBAgQIAAAQIECBAgsLjAMv1MfMN19ELRD5X6cKdjqSs3Zd7LhHrKYW0iQIAAAQIECBAgQIAAAQIECBCYU6D2fkbpOGdQStqt9lCXtFbmSoAAAQIECBAgQIAAAQIECPRToPZ+RunYw1zXHuoeLqlLIkCAAAECBAgQIECAAAECBAoTqL2fUToWFth5plt7qOcxsg8BAgQIECBAgAABAgQIECBAYJUCtfczSsdVpmtNx6491Gtid1oCBAgQIECAAAECBAgQIECAwK1A7f2M0vE2Cv15UXuo+7OSroQAAQIECBAgQIAAAQIECBAoVaD2fkbpWGpyzZsAAQIECBAgQIAAAQIECBAgQIBApgJKx0wXxrQIECBAgAABAgQIECBAgAABAgQIlCqgdCx15cybAAECBAgQIECAAAECBAgQIECAQKYCSsdMF8a0CBAgQIAAAQIECBAgQIAAAQIECJQqoHQsdeXMmwABAgQIECBAgAABAgQIECBAgECmAkrHTBfGtAgQIECAAAECBAgQIECAAAECBAiUKqB0LHXlzJsAAQIECBAgQIAAAQIECBAgQIBApgJKx0wXxrQIECBAgAABAgQIECBAgAABAgQIlCqgdCx15cybAAECBAgQIECAAAECBAgQIECAQKYCSsdMF8a0CBAgQIAAAQIECBAgQIAAAQIECJQqoHQsdeXMmwABAgQIECBAgAABAgQIECBAgECmAkrHTBfGtAgQIECAAAECBAgQIECAAAECBAiUKqB0LHXlzJsAAQIECBAgQIAAAQIECBAgQIBApgJKx0wXxrQIECBAgAABAgQIECBAgAABAgQIlCqgdCx15cybAAECBAgQIECAAAECBAgQIECAQKYCSsdMF8a0CBAgQIAAAQIECBAgQIAAAQIECJQqoHQsdeXMmwABAgQIECBAgAABAgQIECBAgECmAkrHTBfGtAgQIECAAAECBAgQIECAAAECBAiUKqB0LHXlzJsAAQIECBAgQIAAAQIECBAgQIBApgJKx0wXxrQIECBAgAABAgQIECBAgAABAgQIlCqgdCx15cybAAECBAgQIECAAAECBAgQIECAQKYCSsdMF8a0CBAgQIAAAQIECBAgQIAAAQIECJQqoHQsdeXMmwABAgQIECBAgAABAgQIECBAgECmAkrHTBfGtAgQIECAAAECBAgQIECAAAECBAiUKqB0LHXlzJsAAQIECBAgQIAAAQIECBAgQIBApgJKx0wXxrQIECBAgAABAgQIECBAgAABAgQIlCqgdCx15cybAAECBAgQIECAAAECBAgQIECAQKYCSsdMF8a0CBAgQIAAAQIECBAgQIAAAQIECJQq8B+8ImxiyaqPJQAAAABJRU5ErkJggg==;" vertex="1" parent="tvQKc_M3v3oXsCmEUugs-1">
          <mxGeometry width="1309" height="723" as="geometry" />
        </mxCell>
        <mxCell id="tvQKc_M3v3oXsCmEUugs-3" value="&lt;b&gt;&lt;font color=&quot;#82b366&quot;&gt;CONVOYEUR PRINCIPAL&lt;/font&gt;&lt;/b&gt;" style="rounded=0;whiteSpace=wrap;html=1;strokeColor=#82B366;fillColor=#d5e8d4;" vertex="1" parent="tvQKc_M3v3oXsCmEUugs-1">
          <mxGeometry x="119.5" y="366" width="1127" height="271" as="geometry" />
        </mxCell>
        <mxCell id="tvQKc_M3v3oXsCmEUugs-4" value="&lt;b&gt;&lt;font color=&quot;#82b366&quot;&gt;CONVOYEUR APPROVISIONNEMENT BUTTES&lt;/font&gt;&lt;/b&gt;" style="rounded=0;whiteSpace=wrap;html=1;fillColor=#d5e8d4;strokeColor=#82b366;" vertex="1" parent="tvQKc_M3v3oXsCmEUugs-1">
          <mxGeometry x="119.5" y="51" width="631" height="90" as="geometry" />
        </mxCell>
        <mxCell id="tvQKc_M3v3oXsCmEUugs-5" value="&lt;b&gt;&lt;font color=&quot;#d79b00&quot;&gt;COLLE&lt;/font&gt;&lt;/b&gt;" style="rounded=0;whiteSpace=wrap;html=1;fillColor=#ffe6cc;strokeColor=#d79b00;" vertex="1" parent="tvQKc_M3v3oXsCmEUugs-1">
          <mxGeometry x="264.5" y="256" width="137" height="87" as="geometry" />
        </mxCell>
        <mxCell id="tvQKc_M3v3oXsCmEUugs-6" value="&lt;b&gt;&lt;font color=&quot;#9673a6&quot;&gt;DISTRIBUTEUR VIS&lt;/font&gt;&lt;/b&gt;" style="rounded=0;whiteSpace=wrap;html=1;fillColor=#e1d5e7;strokeColor=#9673A6;" vertex="1" parent="tvQKc_M3v3oXsCmEUugs-1">
          <mxGeometry x="761.5" y="51" width="272" height="181" as="geometry" />
        </mxCell>
        <mxCell id="tvQKc_M3v3oXsCmEUugs-7" value="" style="rounded=0;whiteSpace=wrap;html=1;fillColor=#ffe6cc;strokeColor=#D79B00;" vertex="1" parent="tvQKc_M3v3oXsCmEUugs-1">
          <mxGeometry x="422.5" y="293" width="13" height="13" as="geometry" />
        </mxCell>
        <mxCell id="tvQKc_M3v3oXsCmEUugs-8" value="&lt;b&gt;BUSE ENCOLLAGE&lt;/b&gt;" style="rounded=0;whiteSpace=wrap;html=1;fillColor=none;strokeColor=none;fontColor=#D79B00;" vertex="1" parent="tvQKc_M3v3oXsCmEUugs-1">
          <mxGeometry x="422.5" y="260" width="82" height="21" as="geometry" />
        </mxCell>
        <mxCell id="tvQKc_M3v3oXsCmEUugs-9" value="&lt;b&gt;ROBOT 1&lt;/b&gt;" style="rounded=0;whiteSpace=wrap;html=1;fillColor=none;strokeColor=none;" vertex="1" parent="tvQKc_M3v3oXsCmEUugs-1">
          <mxGeometry x="571.5" y="232" width="82" height="21" as="geometry" />
        </mxCell>
        <mxCell id="tvQKc_M3v3oXsCmEUugs-10" value="&lt;b&gt;ROBOT 2&lt;/b&gt;" style="rounded=0;whiteSpace=wrap;html=1;fillColor=none;strokeColor=none;" vertex="1" parent="tvQKc_M3v3oXsCmEUugs-1">
          <mxGeometry x="750.5" y="232" width="82" height="21" as="geometry" />
        </mxCell>
        <mxCell id="tvQKc_M3v3oXsCmEUugs-11" value="&lt;b&gt;&lt;font color=&quot;#82b366&quot;&gt;CONVOYEUR APPROVISIONNEMENT CAMES&lt;/font&gt;&lt;/b&gt;" style="rounded=0;whiteSpace=wrap;html=1;fillColor=#d5e8d4;strokeColor=#82b366;" vertex="1" parent="tvQKc_M3v3oXsCmEUugs-1">
          <mxGeometry x="119.5" y="141" width="631" height="91" as="geometry" />
        </mxCell>
        <mxCell id="tvQKc_M3v3oXsCmEUugs-12" value="" style="endArrow=none;dashed=1;html=1;rounded=0;exitX=0;exitY=1;exitDx=0;exitDy=0;fillColor=#f8cecc;strokeColor=#FF0000;" edge="1" parent="tvQKc_M3v3oXsCmEUugs-1">
          <mxGeometry width="50" height="50" relative="1" as="geometry">
            <mxPoint x="392.5" y="231" as="sourcePoint" />
            <mxPoint x="392.5" y="141" as="targetPoint" />
          </mxGeometry>
        </mxCell>
        <mxCell id="tvQKc_M3v3oXsCmEUugs-13" value="" style="ellipse;whiteSpace=wrap;html=1;aspect=fixed;fillColor=#f8cecc;strokeColor=none;opacity=50;" vertex="1" parent="tvQKc_M3v3oXsCmEUugs-1">
          <mxGeometry x="390.5" y="123.5" width="352" height="352" as="geometry" />
        </mxCell>
      </root>
    </mxGraphModel>
  </diagram>
</mxfile>
